ffmpeg started on 2016-11-26 at 06:56:14
Report written to "Output/NVENCh264/results/ffmpeg/old_town_cross_2160p50ll500k.log"
Command line:
Tools/ffmpeg/ffmpeg -benchmark -y -i Input/y4m/old_town_cross_2160p50.y4m -c:v h264_nvenc -preset ll -b:v 500k -an Output/NVENCh264/encoded/old_town_cross_2160p50ll500k.mkv
ffmpeg version N-82227-gdb23fde Copyright (c) 2000-2016 the FFmpeg developers
  built with gcc 5.4.0 (Ubuntu 5.4.0-6ubuntu1~16.04.2) 20160609
  configuration: --prefix=/home/jaroslav/ffmpeg_build --pkg-config-flags=--static --extra-cflags=-I/home/jaroslav/ffmpeg_build/include --extra-ldflags=-L/home/jaroslav/ffmpeg_build/lib --bindir=/home/jaroslav/bin --enable-gpl --enable-libass --enable-libfdk-aac --enable-libfreetype --enable-libmp3lame --enable-libopus --enable-libtheora --enable-libvorbis --enable-libvpx --enable-libx264 --enable-libx265 --enable-nvenc --enable-libmfx --enable-libxvid --enable-libgsm --enable-libopencore-amrnb --enable-version3 --enable-nonfree
  libavutil      55. 35.100 / 55. 35.100
  libavcodec     57. 66.101 / 57. 66.101
  libavformat    57. 57.100 / 57. 57.100
  libavdevice    57.  2.100 / 57.  2.100
  libavfilter     6. 66.100 /  6. 66.100
  libswscale      4.  3.100 /  4.  3.100
  libswresample   2.  4.100 /  2.  4.100
  libpostproc    54.  2.100 / 54.  2.100
Input #0, yuv4mpegpipe, from 'Input/y4m/old_town_cross_2160p50.y4m':
  Duration: 00:00:10.00, start: 0.000000, bitrate: 4976642 kb/s
    Stream #0:0: Video: rawvideo (I420 / 0x30323449), yuv420p(progressive), 3840x2160, SAR 1:1 DAR 16:9, 50 fps, 50 tbr, 50 tbn, 50 tbc
[h264_nvenc @ 0x2e64120] The variable bitrate rate-control requires the 'qmin' and/or 'qmax' option set.
Output #0, matroska, to 'Output/NVENCh264/encoded/old_town_cross_2160p50ll500k.mkv':
  Metadata:
    encoder         : Lavf57.57.100
    Stream #0:0: Video: h264 (h264_nvenc) (Main) (H264 / 0x34363248), yuv420p, 3840x2160 [SAR 1:1 DAR 16:9], q=-1--1, 500 kb/s, 50 fps, 1k tbn, 50 tbc
    Metadata:
      encoder         : Lavc57.66.101 h264_nvenc
    Side data:
      cpb: bitrate max/min/avg: 0/0/500000 buffer size: 1000000 vbv_delay: -1
Stream mapping:
  Stream #0:0 -> #0:0 (rawvideo (native) -> h264 (h264_nvenc))
Press [q] to stop, [?] for help
frame=    8 fps=0.0 q=0.0 size=       0kB time=00:00:00.00 bitrate=N/A speed=   0x    frame=   16 fps= 15 q=0.0 size=       0kB time=00:00:00.00 bitrate=N/A speed=   0x    frame=   34 fps= 21 q=47.0 size=       1kB time=00:00:00.06 bitrate=  97.6kbits/s speed=0.0375x    frame=   41 fps= 19 q=48.0 size=       1kB time=00:00:00.20 bitrate=  29.6kbits/s speed=0.0944x    frame=   56 fps= 18 q=49.0 size=       1kB time=00:00:00.50 bitrate=  11.9kbits/s speed=0.161x    frame=   62 fps= 16 q=49.0 size=       1kB time=00:00:00.62 bitrate=   9.6kbits/s speed=0.156x    frame=   70 fps= 15 q=49.0 size=       1kB time=00:00:00.78 bitrate=   7.6kbits/s speed=0.171x    frame=   82 fps= 16 q=49.0 size=       1kB time=00:00:01.02 bitrate=   5.8kbits/s speed=0.195x    frame=  100 fps= 16 q=49.0 size=       1kB time=00:00:01.38 bitrate=   4.3kbits/s speed=0.227x    frame=  106 fps= 16 q=49.0 size=       1kB time=00:00:01.50 bitrate=   4.0kbits/s speed=0.227x    frame=  109 fps= 15 q=49.0 size=       1kB time=00:00:01.56 bitrate=   3.8kbits/s speed=0.215x    frame=  113 fps= 15 q=49.0 size=       1kB time=00:00:01.64 bitrate=   3.6kbits/s speed=0.212x    frame=  115 fps= 14 q=49.0 size=       1kB time=00:00:01.68 bitrate=   3.5kbits/s speed=0.199x    frame=  121 fps= 13 q=49.0 size=       1kB time=00:00:01.80 bitrate=   3.3kbits/s speed=0.193x    frame=  124 fps= 12 q=49.0 size=       1kB time=00:00:01.86 bitrate=   3.2kbits/s speed=0.183x    frame=  126 fps= 12 q=49.0 size=       1kB time=00:00:01.90 bitrate=   3.1kbits/s speed=0.175x    frame=  129 fps= 11 q=49.0 size=       1kB time=00:00:01.96 bitrate=   3.0kbits/s speed=0.169x    frame=  131 fps= 11 q=49.0 size=       1kB time=00:00:02.00 bitrate=   3.0kbits/s speed=0.162x    frame=  133 fps= 10 q=49.0 size=       1kB time=00:00:02.04 bitrate=   2.9kbits/s speed=0.158x    frame=  134 fps=9.8 q=49.0 size=       1kB time=00:00:02.06 bitrate=   2.9kbits/s speed=0.151x    frame=  136 fps=9.3 q=49.0 size=       1kB time=00:00:02.10 bitrate=   2.8kbits/s speed=0.144x    frame=  137 fps=9.0 q=49.0 size=       1kB time=00:00:02.12 bitrate=   2.8kbits/s speed=0.14x    frame=  138 fps=8.8 q=49.0 size=       1kB time=00:00:02.14 bitrate=   2.8kbits/s speed=0.136x    frame=  140 fps=8.6 q=49.0 size=       1kB time=00:00:02.18 bitrate=   2.7kbits/s speed=0.133x    frame=  143 fps=8.5 q=49.0 size=       1kB time=00:00:02.24 bitrate=   2.7kbits/s speed=0.133x    frame=  144 fps=8.3 q=49.0 size=       1kB time=00:00:02.26 bitrate=   2.6kbits/s speed=0.13x    frame=  146 fps=8.0 q=49.0 size=       1kB time=00:00:02.30 bitrate=   2.6kbits/s speed=0.127x    frame=  151 fps=8.1 q=49.0 size=       1kB time=00:00:02.40 bitrate=   2.5kbits/s speed=0.128x    frame=  156 fps=8.1 q=49.0 size=       1kB time=00:00:02.50 bitrate=   2.4kbits/s speed=0.13x    frame=  165 fps=8.4 q=49.0 size=       1kB time=00:00:02.68 bitrate=   2.2kbits/s speed=0.136x    frame=  172 fps=8.5 q=49.0 size=       1kB time=00:00:02.82 bitrate=   2.1kbits/s speed=0.139x    frame=  177 fps=8.5 q=49.0 size=       1kB time=00:00:02.92 bitrate=   2.0kbits/s speed=0.141x    frame=  180 fps=8.4 q=49.0 size=       1kB time=00:00:02.98 bitrate=   2.0kbits/s speed=0.138x    frame=  186 fps=8.3 q=49.0 size=       1kB time=00:00:03.10 bitrate=   1.9kbits/s speed=0.138x    frame=  191 fps=8.3 q=49.0 size=       1kB time=00:00:03.20 bitrate=   1.9kbits/s speed=0.14x    frame=  197 fps=8.4 q=49.0 size=       1kB time=00:00:03.32 bitrate=   1.8kbits/s speed=0.142x    frame=  201 fps=8.3 q=49.0 size=       1kB time=00:00:03.40 bitrate=   1.8kbits/s speed=0.14x    frame=  202 fps=8.1 q=49.0 size=       1kB time=00:00:03.42 bitrate=   1.7kbits/s speed=0.137x    frame=  205 fps=8.1 q=49.0 size=       1kB time=00:00:03.48 bitrate=   1.7kbits/s speed=0.137x    frame=  208 fps=7.9 q=49.0 size=       1kB time=00:00:03.54 bitrate=   1.7kbits/s speed=0.135x    frame=  211 fps=7.8 q=49.0 size=       1kB time=00:00:03.60 bitrate=   1.7kbits/s speed=0.134x    frame=  213 fps=7.7 q=49.0 size=       1kB time=00:00:03.64 bitrate=   1.6kbits/s speed=0.132x    frame=  215 fps=7.6 q=49.0 size=       1kB time=00:00:03.68 bitrate=   1.6kbits/s speed=0.13x    frame=  229 fps=7.9 q=49.0 size=       1kB time=00:00:03.96 bitrate=   1.5kbits/s speed=0.136x    frame=  234 fps=7.9 q=49.0 size=       1kB time=00:00:04.06 bitrate=   1.5kbits/s speed=0.137x    frame=  240 fps=8.0 q=49.0 size=       1kB time=00:00:04.18 bitrate=   1.4kbits/s speed=0.139x    frame=  245 fps=8.0 q=49.0 size=       1kB time=00:00:04.28 bitrate=   1.4kbits/s speed=0.14x    frame=  262 fps=8.4 q=49.0 size=       1kB time=00:00:04.62 bitrate=   1.3kbits/s speed=0.148x    frame=  264 fps=8.3 q=49.0 size=       1kB time=00:00:04.66 bitrate=   1.3kbits/s speed=0.147x    frame=  282 fps=8.7 q=49.0 size=    1115kB time=00:00:05.02 bitrate=1818.7kbits/s speed=0.156x    frame=  300 fps=9.2 q=49.0 size=    1115kB time=00:00:05.38 bitrate=1697.0kbits/s speed=0.164x    frame=  318 fps=9.6 q=49.0 size=    1115kB time=00:00:05.74 bitrate=1590.6kbits/s speed=0.173x    frame=  336 fps=9.9 q=49.0 size=    1115kB time=00:00:06.10 bitrate=1496.8kbits/s speed=0.18x    frame=  354 fps= 10 q=49.0 size=    1115kB time=00:00:06.46 bitrate=1413.4kbits/s speed=0.188x    frame=  372 fps= 11 q=49.0 size=    1115kB time=00:00:06.82 bitrate=1338.8kbits/s speed=0.196x    frame=  390 fps= 11 q=49.0 size=    1115kB time=00:00:07.18 bitrate=1271.7kbits/s speed=0.203x    frame=  408 fps= 11 q=49.0 size=    1115kB time=00:00:07.54 bitrate=1210.9kbits/s speed=0.21x    frame=  426 fps= 12 q=49.0 size=    1115kB time=00:00:07.90 bitrate=1155.8kbits/s speed=0.217x    frame=  444 fps= 12 q=49.0 size=    1115kB time=00:00:08.26 bitrate=1105.4kbits/s speed=0.224x    frame=  462 fps= 12 q=49.0 size=    1115kB time=00:00:08.62 bitrate=1059.2kbits/s speed=0.23x    frame=  480 fps= 13 q=49.0 size=    1115kB time=00:00:08.98 bitrate=1016.8kbits/s speed=0.237x    frame=  498 fps= 13 q=49.0 size=    1115kB time=00:00:09.34 bitrate= 977.6kbits/s speed=0.243x    frame=  500 fps= 13 q=49.0 Lsize=    2531kB time=00:00:09.98 bitrate=2077.4kbits/s speed=0.259x    
video:2527kB audio:0kB subtitle:0kB other streams:0kB global headers:0kB muxing overhead: 0.167385%
bench: utime=1.352s
bench: maxrss=1420936kB
